<svg xmlns="http://www.w3.org/2000/svg" width="760" height="457" viewBox="0 0 760 457" role="img" font-family="system-ui, -apple-system, &#x27;Segoe UI&#x27;, sans-serif">
<title>Feature cohorts (Leiden): lapse rate</title>
<desc>Dot plot of 15 published cohorts sorted by lapse rate with Wilson intervals: leiden-14 pro 31.9% (n 94); leiden-11 pro 21.0% (n 143); leiden-15 pro 16.4% (n 55); leiden-13 pro 13.8% (n 94); leiden-12 pro_plus 10.2% (n 108); leiden-02 pro 9.1% (n 833); leiden-04 pro 8.7% (n 734); leiden-05 pro 8.2% (n 734); leiden-03 pro 7.5% (n 778); leiden-09 pro 7.4% (n 435); leiden-08 pro 6.5% (n 538); leiden-01 pro_plus 5.4% (n 1,150); leiden-06 pro 4.6% (n 712); leiden-07 pro 3.6% (n 665); leiden-10 ultra 3.5% (n 314). Overall model-renewal rate 7.4%.</desc>
<rect width="760" height="457" rx="8" fill="#fcfcfb"/>
<text x="24" y="38" font-size="15" fill="#0b0b0b" font-weight="600">Feature cohorts (Leiden): lapse rate</text>
<text x="24" y="58" font-size="12" fill="#52514e">15 cohorts, sorted by rate, with 95% intervals. Model renewals only.</text>
<circle cx="30" cy="81" r="6" fill="#fcfcfb"/>
<circle cx="30" cy="81" r="4" fill="#2a78d6"/>
<text x="42" y="85" font-size="11" fill="#52514e">pro</text>
<circle cx="80.85" cy="81" r="6" fill="#fcfcfb"/>
<circle cx="80.85" cy="81" r="4" fill="#eb6834"/>
<text x="92.85" y="85" font-size="11" fill="#52514e">pro_plus</text>
<circle cx="159.56" cy="81" r="6" fill="#fcfcfb"/>
<circle cx="159.56" cy="81" r="4" fill="#1baf7a"/>
<text x="171.56" y="85" font-size="11" fill="#52514e">ultra</text>
<line x1="210.24" y1="81" x2="222.24" y2="81" stroke="#52514e" stroke-width="2" stroke-linecap="round"/>
<text x="228.24" y="85" font-size="11" fill="#52514e">all renewals 7.4%</text>
<line x1="149.65" y1="99" x2="149.65" y2="390" stroke="#e1e0d9" stroke-width="1"/>
<text x="149.65" y="404" font-size="10.5" fill="#52514e" text-anchor="middle" font-variant-numeric="tabular-nums">0%</text>
<line x1="248.03" y1="99" x2="248.03" y2="390" stroke="#e1e0d9" stroke-width="1"/>
<text x="248.03" y="404" font-size="10.5" fill="#52514e" text-anchor="middle" font-variant-numeric="tabular-nums">10%</text>
<line x1="346.41" y1="99" x2="346.41" y2="390" stroke="#e1e0d9" stroke-width="1"/>
<text x="346.41" y="404" font-size="10.5" fill="#52514e" text-anchor="middle" font-variant-numeric="tabular-nums">20%</text>
<line x1="444.8" y1="99" x2="444.8" y2="390" stroke="#e1e0d9" stroke-width="1"/>
<text x="444.8" y="404" font-size="10.5" fill="#52514e" text-anchor="middle" font-variant-numeric="tabular-nums">30%</text>
<line x1="543.18" y1="99" x2="543.18" y2="390" stroke="#e1e0d9" stroke-width="1"/>
<text x="543.18" y="404" font-size="10.5" fill="#52514e" text-anchor="middle" font-variant-numeric="tabular-nums">40%</text>
<line x1="641.56" y1="99" x2="641.56" y2="390" stroke="#e1e0d9" stroke-width="1"/>
<text x="641.56" y="404" font-size="10.5" fill="#52514e" text-anchor="middle" font-variant-numeric="tabular-nums">50%</text>
<line x1="222.63" y1="99" x2="222.63" y2="390" stroke="#52514e" stroke-width="1.5"/>
<text x="24" y="116.5" font-size="12" fill="#0b0b0b" font-weight="600">leiden-14</text>
<text x="139.65" y="116.5" font-size="11" fill="#52514e" text-anchor="end">pro</text>
<g><title>leiden-14 (pro): 31.9%  30/94 [23.4%, 41.9%]</title>
<line x1="379.47" y1="112.5" x2="561.77" y2="112.5" stroke="#2a78d6" stroke-width="2" stroke-linecap="round"/>
<circle cx="463.64" cy="112.5" r="6.5" fill="#fcfcfb"/>
<circle cx="463.64" cy="112.5" r="4.5" fill="#2a78d6"/>
</g>
<text x="653.56" y="116.5" font-size="11" fill="#52514e" font-variant-numeric="tabular-nums">31.9%  30/94</text>
<text x="24" y="135.5" font-size="12" fill="#0b0b0b" font-weight="600">leiden-11</text>
<text x="139.65" y="135.5" font-size="11" fill="#52514e" text-anchor="end">pro</text>
<g><title>leiden-11 (pro): 21.0%  30/143 [15.1%, 28.4%]</title>
<line x1="298.31" y1="131.5" x2="428.76" y2="131.5" stroke="#2a78d6" stroke-width="2" stroke-linecap="round"/>
<circle cx="356.05" cy="131.5" r="6.5" fill="#fcfcfb"/>
<circle cx="356.05" cy="131.5" r="4.5" fill="#2a78d6"/>
</g>
<text x="653.56" y="135.5" font-size="11" fill="#52514e" font-variant-numeric="tabular-nums">21.0%  30/143</text>
<text x="24" y="154.5" font-size="12" fill="#0b0b0b" font-weight="600">leiden-15</text>
<text x="139.65" y="154.5" font-size="11" fill="#52514e" text-anchor="end">pro</text>
<g><title>leiden-15 (pro): 16.4%  9/55 [8.9%, 28.3%]</title>
<line x1="236.82" y1="150.5" x2="427.68" y2="150.5" stroke="#2a78d6" stroke-width="2" stroke-linecap="round"/>
<circle cx="310.64" cy="150.5" r="6.5" fill="#fcfcfb"/>
<circle cx="310.64" cy="150.5" r="4.5" fill="#2a78d6"/>
</g>
<text x="653.56" y="154.5" font-size="11" fill="#52514e" font-variant-numeric="tabular-nums">16.4%  9/55</text>
<text x="24" y="173.5" font-size="12" fill="#0b0b0b" font-weight="600">leiden-13</text>
<text x="139.65" y="173.5" font-size="11" fill="#52514e" text-anchor="end">pro</text>
<g><title>leiden-13 (pro): 13.8%  13/94 [8.3%, 22.2%]</title>
<line x1="230.91" y1="169.5" x2="368.45" y2="169.5" stroke="#2a78d6" stroke-width="2" stroke-linecap="round"/>
<circle cx="285.71" cy="169.5" r="6.5" fill="#fcfcfb"/>
<circle cx="285.71" cy="169.5" r="4.5" fill="#2a78d6"/>
</g>
<text x="653.56" y="173.5" font-size="11" fill="#52514e" font-variant-numeric="tabular-nums">13.8%  13/94</text>
<text x="24" y="192.5" font-size="12" fill="#0b0b0b" font-weight="600">leiden-12</text>
<text x="139.65" y="192.5" font-size="11" fill="#52514e" text-anchor="end">pro_plus</text>
<g><title>leiden-12 (pro_plus): 10.2%  11/108 [5.8%, 17.3%]</title>
<line x1="206.51" y1="188.5" x2="320.05" y2="188.5" stroke="#eb6834" stroke-width="2" stroke-linecap="round"/>
<circle cx="249.85" cy="188.5" r="6.5" fill="#fcfcfb"/>
<circle cx="249.85" cy="188.5" r="4.5" fill="#eb6834"/>
</g>
<text x="653.56" y="192.5" font-size="11" fill="#52514e" font-variant-numeric="tabular-nums">10.2%  11/108</text>
<text x="24" y="211.5" font-size="12" fill="#0b0b0b" font-weight="600">leiden-02</text>
<text x="139.65" y="211.5" font-size="11" fill="#52514e" text-anchor="end">pro</text>
<g><title>leiden-02 (pro): 9.1%  76/833 [7.3%, 11.3%]</title>
<line x1="221.96" y1="207.5" x2="260.53" y2="207.5" stroke="#2a78d6" stroke-width="2" stroke-linecap="round"/>
<circle cx="239.41" cy="207.5" r="6.5" fill="#fcfcfb"/>
<circle cx="239.41" cy="207.5" r="4.5" fill="#2a78d6"/>
</g>
<text x="653.56" y="211.5" font-size="11" fill="#52514e" font-variant-numeric="tabular-nums">9.1%  76/833</text>
<text x="24" y="230.5" font-size="12" fill="#0b0b0b" font-weight="600">leiden-04</text>
<text x="139.65" y="230.5" font-size="11" fill="#52514e" text-anchor="end">pro</text>
<g><title>leiden-04 (pro): 8.7%  64/734 [6.9%, 11.0%]</title>
<line x1="217.44" y1="226.5" x2="257.67" y2="226.5" stroke="#2a78d6" stroke-width="2" stroke-linecap="round"/>
<circle cx="235.43" cy="226.5" r="6.5" fill="#fcfcfb"/>
<circle cx="235.43" cy="226.5" r="4.5" fill="#2a78d6"/>
</g>
<text x="653.56" y="230.5" font-size="11" fill="#52514e" font-variant-numeric="tabular-nums">8.7%  64/734</text>
<text x="24" y="249.5" font-size="12" fill="#0b0b0b" font-weight="600">leiden-05</text>
<text x="139.65" y="249.5" font-size="11" fill="#52514e" text-anchor="end">pro</text>
<g><title>leiden-05 (pro): 8.2%  60/734 [6.4%, 10.4%]</title>
<line x1="212.61" y1="245.5" x2="251.77" y2="245.5" stroke="#2a78d6" stroke-width="2" stroke-linecap="round"/>
<circle cx="230.07" cy="245.5" r="6.5" fill="#fcfcfb"/>
<circle cx="230.07" cy="245.5" r="4.5" fill="#2a78d6"/>
</g>
<text x="653.56" y="249.5" font-size="11" fill="#52514e" font-variant-numeric="tabular-nums">8.2%  60/734</text>
<text x="24" y="268.5" font-size="12" fill="#0b0b0b" font-weight="600">leiden-03</text>
<text x="139.65" y="268.5" font-size="11" fill="#52514e" text-anchor="end">pro</text>
<g><title>leiden-03 (pro): 7.5%  58/778 [5.8%, 9.5%]</title>
<line x1="206.81" y1="264.5" x2="243.31" y2="264.5" stroke="#2a78d6" stroke-width="2" stroke-linecap="round"/>
<circle cx="222.99" cy="264.5" r="6.5" fill="#fcfcfb"/>
<circle cx="222.99" cy="264.5" r="4.5" fill="#2a78d6"/>
</g>
<text x="653.56" y="268.5" font-size="11" fill="#52514e" font-variant-numeric="tabular-nums">7.5%  58/778</text>
<text x="24" y="287.5" font-size="12" fill="#0b0b0b" font-weight="600">leiden-09</text>
<text x="139.65" y="287.5" font-size="11" fill="#52514e" text-anchor="end">pro</text>
<g><title>leiden-09 (pro): 7.4%  32/435 [5.3%, 10.2%]</title>
<line x1="201.4" y1="283.5" x2="250" y2="283.5" stroke="#2a78d6" stroke-width="2" stroke-linecap="round"/>
<circle cx="222.02" cy="283.5" r="6.5" fill="#fcfcfb"/>
<circle cx="222.02" cy="283.5" r="4.5" fill="#2a78d6"/>
</g>
<text x="653.56" y="287.5" font-size="11" fill="#52514e" font-variant-numeric="tabular-nums">7.4%  32/435</text>
<text x="24" y="306.5" font-size="12" fill="#0b0b0b" font-weight="600">leiden-08</text>
<text x="139.65" y="306.5" font-size="11" fill="#52514e" text-anchor="end">pro</text>
<g><title>leiden-08 (pro): 6.5%  35/538 [4.7%, 8.9%]</title>
<line x1="195.99" y1="302.5" x2="237.31" y2="302.5" stroke="#2a78d6" stroke-width="2" stroke-linecap="round"/>
<circle cx="213.65" cy="302.5" r="6.5" fill="#fcfcfb"/>
<circle cx="213.65" cy="302.5" r="4.5" fill="#2a78d6"/>
</g>
<text x="653.56" y="306.5" font-size="11" fill="#52514e" font-variant-numeric="tabular-nums">6.5%  35/538</text>
<text x="24" y="325.5" font-size="12" fill="#0b0b0b" font-weight="600">leiden-01</text>
<text x="139.65" y="325.5" font-size="11" fill="#52514e" text-anchor="end">pro_plus</text>
<g><title>leiden-01 (pro_plus): 5.4%  62/1,150 [4.2%, 6.9%]</title>
<line x1="191.27" y1="321.5" x2="217.04" y2="321.5" stroke="#eb6834" stroke-width="2" stroke-linecap="round"/>
<circle cx="202.69" cy="321.5" r="6.5" fill="#fcfcfb"/>
<circle cx="202.69" cy="321.5" r="4.5" fill="#eb6834"/>
</g>
<text x="653.56" y="325.5" font-size="11" fill="#52514e" font-variant-numeric="tabular-nums">5.4%  62/1,150</text>
<text x="24" y="344.5" font-size="12" fill="#0b0b0b" font-weight="600">leiden-06</text>
<text x="139.65" y="344.5" font-size="11" fill="#52514e" text-anchor="end">pro</text>
<g><title>leiden-06 (pro): 4.6%  33/712 [3.3%, 6.4%]</title>
<line x1="182.31" y1="340.5" x2="213.01" y2="340.5" stroke="#2a78d6" stroke-width="2" stroke-linecap="round"/>
<circle cx="195.25" cy="340.5" r="6.5" fill="#fcfcfb"/>
<circle cx="195.25" cy="340.5" r="4.5" fill="#2a78d6"/>
</g>
<text x="653.56" y="344.5" font-size="11" fill="#52514e" font-variant-numeric="tabular-nums">4.6%  33/712</text>
<text x="24" y="363.5" font-size="12" fill="#0b0b0b" font-weight="600">leiden-07</text>
<text x="139.65" y="363.5" font-size="11" fill="#52514e" text-anchor="end">pro</text>
<g><title>leiden-07 (pro): 3.6%  24/665 [2.4%, 5.3%]</title>
<line x1="173.65" y1="359.5" x2="201.89" y2="359.5" stroke="#2a78d6" stroke-width="2" stroke-linecap="round"/>
<circle cx="185.16" cy="359.5" r="6.5" fill="#fcfcfb"/>
<circle cx="185.16" cy="359.5" r="4.5" fill="#2a78d6"/>
</g>
<text x="653.56" y="363.5" font-size="11" fill="#52514e" font-variant-numeric="tabular-nums">3.6%  24/665</text>
<text x="24" y="382.5" font-size="12" fill="#0b0b0b" font-weight="600">leiden-10</text>
<text x="139.65" y="382.5" font-size="11" fill="#52514e" text-anchor="end">ultra</text>
<g><title>leiden-10 (ultra): 3.5%  11/314 [2.0%, 6.2%]</title>
<line x1="169.03" y1="378.5" x2="210.25" y2="378.5" stroke="#1baf7a" stroke-width="2" stroke-linecap="round"/>
<circle cx="184.11" cy="378.5" r="6.5" fill="#fcfcfb"/>
<circle cx="184.11" cy="378.5" r="4.5" fill="#1baf7a"/>
</g>
<text x="653.56" y="382.5" font-size="11" fill="#52514e" font-variant-numeric="tabular-nums">3.5%  11/314</text>
<text x="24" y="422" font-size="10.5" fill="#52514e">Graph build dde502e2a8e1, seed 42</text>
</svg>
