<svg xmlns="http://www.w3.org/2000/svg" width="760" height="401" viewBox="0 0 760 401" role="img" font-family="system-ui, -apple-system, &#x27;Segoe UI&#x27;, sans-serif">
<title>Point-in-time leak surface: event edges dated after their renewal&#x27;s as_of</title>
<desc>Stacked horizontal bars per event edge type, on or before as_of versus after as_of: HIT_LIMIT 3,000 of 10,602 after as_of (1,165 renewals); BILLED 9,852 of 10,139 after as_of (8,000 renewals); EXPOSED_TO 1,401 of 7,651 after as_of (985 renewals); FIRST_RENEWAL_AFTER 495 of 2,503 after as_of (495 renewals); OPENED 114 of 2,134 after as_of (114 renewals); CHANGED_OVERAGE 0 of 849 after as_of (0 renewals); CHARGED_OVERAGE 0 of 470 after as_of (0 renewals).</desc>
<rect width="760" height="401" rx="8" fill="#1a1a19"/>
<text x="24" y="38" font-size="15" fill="#ffffff" font-weight="600">Point-in-time leak surface: event edges dated after their renewal&#x27;s as_of</text>
<text x="24" y="58" font-size="12" fill="#c3c2b7">14,862 of 34,348 event edges fall after as_of (T-7). The graph keeps them on purpose; every tool template filters event_date</text>
<text x="24" y="75" font-size="12" fill="#c3c2b7">&lt;= as_of. FIRST_RENEWAL_AFTER edges after as_of are the one declared exception (gold rule), served flagged.</text>
<rect x="24" y="93" width="12" height="10" fill="#3987e5" rx="2"/>
<text x="42" y="102" font-size="11" fill="#c3c2b7">on or before as_of</text>
<rect x="152.63" y="93" width="12" height="10" fill="#d95926" rx="2"/>
<text x="170.63" y="102" font-size="11" fill="#c3c2b7">after as_of</text>
<g><title>HIT_LIMIT: 7,602 on or before as_of, 3,000 after</title>
<text x="183.49" y="137" font-size="12" fill="#ffffff" text-anchor="end">HIT_LIMIT</text>
<path d="M193.49 125H352.25V141H193.49Z" fill="#3987e5"/>
<path d="M354.25 125H410.9A4 4 0 0 1 414.9 129V137A4 4 0 0 1 410.9 141H354.25Z" fill="#d95926"/>
<text x="420.9" y="137" font-size="11" fill="#c3c2b7" font-variant-numeric="tabular-nums">3,000 of 10,602 after as_of (1,165 renewals)</text>
</g>
<g><title>BILLED: 287 on or before as_of, 9,852 after</title>
<text x="183.49" y="163" font-size="12" fill="#ffffff" text-anchor="end">BILLED</text>
<path d="M193.49 151H199.48V167H193.49Z" fill="#3987e5"/>
<path d="M201.48 151H401.23A4 4 0 0 1 405.23 155V163A4 4 0 0 1 401.23 167H201.48Z" fill="#d95926"/>
<text x="411.23" y="163" font-size="11" fill="#c3c2b7" font-variant-numeric="tabular-nums">9,852 of 10,139 after as_of (8,000 renewals)</text>
</g>
<g><title>EXPOSED_TO: 6,250 on or before as_of, 1,401 after</title>
<text x="183.49" y="189" font-size="12" fill="#ffffff" text-anchor="end">EXPOSED_TO</text>
<path d="M193.49 177H324.01V193H193.49Z" fill="#3987e5"/>
<path d="M326.01 177H349.27A4 4 0 0 1 353.27 181V189A4 4 0 0 1 349.27 193H326.01Z" fill="#d95926"/>
<text x="359.27" y="189" font-size="11" fill="#c3c2b7" font-variant-numeric="tabular-nums">1,401 of 7,651 after as_of (985 renewals)</text>
</g>
<g><title>FIRST_RENEWAL_AFTER: 2,008 on or before as_of, 495 after</title>
<text x="183.49" y="215" font-size="12" fill="#ffffff" text-anchor="end">FIRST_RENEWAL_AFTER</text>
<path d="M193.49 203H235.42V219H193.49Z" fill="#3987e5"/>
<path d="M237.42 203H241.76A4 4 0 0 1 245.76 207V215A4 4 0 0 1 241.76 219H237.42Z" fill="#d95926"/>
<text x="251.76" y="215" font-size="11" fill="#c3c2b7" font-variant-numeric="tabular-nums">495 of 2,503 after as_of (495 renewals) · declared exception</text>
</g>
<g><title>OPENED: 2,020 on or before as_of, 114 after</title>
<text x="183.49" y="241" font-size="12" fill="#ffffff" text-anchor="end">OPENED</text>
<path d="M193.49 229H235.67V245H193.49Z" fill="#3987e5"/>
<path d="M237.67 229H237.86A0.19 0.19 0 0 1 238.06 229.19V244.81A0.19 0.19 0 0 1 237.86 245H237.67Z" fill="#d95926"/>
<text x="244.06" y="241" font-size="11" fill="#c3c2b7" font-variant-numeric="tabular-nums">114 of 2,134 after as_of (114 renewals)</text>
</g>
<g><title>CHANGED_OVERAGE: 849 on or before as_of, 0 after</title>
<text x="183.49" y="267" font-size="12" fill="#ffffff" text-anchor="end">CHANGED_OVERAGE</text>
<path d="M193.49 255H207.22A4 4 0 0 1 211.22 259V267A4 4 0 0 1 207.22 271H193.49Z" fill="#3987e5"/>
<text x="217.22" y="267" font-size="11" fill="#c3c2b7" font-variant-numeric="tabular-nums">0 of 849 after as_of</text>
</g>
<g><title>CHARGED_OVERAGE: 470 on or before as_of, 0 after</title>
<text x="183.49" y="293" font-size="12" fill="#ffffff" text-anchor="end">CHARGED_OVERAGE</text>
<path d="M193.49 281H199.3A4 4 0 0 1 203.3 285V293A4 4 0 0 1 199.3 297H193.49Z" fill="#3987e5"/>
<text x="209.3" y="293" font-size="11" fill="#c3c2b7" font-variant-numeric="tabular-nums">0 of 470 after as_of</text>
</g>
<line x1="193.49" y1="118" x2="193.49" y2="304" stroke="#383835" stroke-width="1"/>
<text x="24" y="324" font-size="11" fill="#c3c2b7">After as_of = event_date &gt; the renewal&#x27;s as_of; for FIRST_RENEWAL_AFTER, known_by_as_of = false (the cut took effect after T-7).</text>
<text x="24" y="339" font-size="11" fill="#c3c2b7">Source: graph build a2598a28e164 · profile s42 · seed 42, N_USERS 8000 (verified) · data_end 2026-09-30 · renewal-graph/v1 · commit</text>
<text x="24" y="354" font-size="11" fill="#c3c2b7">013dd4e · regenerate with scripts/graph_evidence.py.</text>
</svg>
